<?xml version="1.0" encoding="utf-8"?>
<!-- Generator: Adobe Illustrator 23.1.0, SVG Export Plug-In . SVG Version: 6.00 Build 0)  -->
<svg version="1.1" id="Layer_1" xmlns="http://www.w3.org/2000/svg" xmlns:xlink="http://www.w3.org/1999/xlink" x="0px" y="0px"
	 viewBox="0 0 262.5 46.7" style="enable-background:new 0 0 262.5 46.7;" xml:space="preserve">
<style type="text/css">
	.st0{fill:#FFFFFF;}
	.st1{fill:#E2231A;}
</style>
<g>
	<path class="st0" d="M99.5,0.9h3.1l30.9,39v-39h3.2v44.8h-2.5L102.7,5.9v39.8h-3.2V0.9z"/>
	<path class="st0" d="M144.8,39.2l2.2-2.5c4.9,4.5,9.5,6.7,16.1,6.7c6.7,0,11.3-3.8,11.3-8.9v-0.1c0-4.7-2.5-7.5-12.7-9.5
		c-10.8-2.2-15.1-5.8-15.1-12.6v-0.1c0-6.7,6.1-11.8,14.4-11.8c6.5,0,10.8,1.8,15.4,5.4l-2.1,2.6c-4.2-3.6-8.5-5.1-13.4-5.1
		c-6.6,0-10.9,3.8-10.9,8.5v0.1c0,4.7,2.4,7.6,13.1,9.8c10.4,2.1,14.7,5.8,14.7,12.4v0.1c0,7.2-6.2,12.2-14.9,12.2
		C155.6,46.4,150.1,44,144.8,39.2z"/>
	<path class="st0" d="M225.3,1.2h3.1l30.9,39v-39h3.2V46H260L228.5,6.2V46h-3.2V1.2z"/>
	<g>
		<polygon class="st0" points="72.2,4.2 83.3,28.9 64.9,28.9 63.5,31.9 84.7,31.9 91.1,45.7 94.7,45.7 73.8,0.6 70.6,0.6 49.8,45.7 
			53.2,45.7 		"/>
	</g>
	<g>
		<polygon class="st0" points="188.4,43.2 188.4,27.8 188.4,25.2 188.4,22.1 188.4,18.4 188.4,4.5 216.9,4.5 216.9,1.4 185,1.4 
			185,46.2 217.2,46.2 217.2,43.2 		"/>
	</g>
	<polygon class="st0" points="214,25.2 214,22.1 192.4,22.1 191,25.2 	"/>
	<g>
		<path class="st1" d="M45.4,0.5h-15v14.8c5.6,0.6,10.7,1.5,15,2.4V0.5z"/>
		<path class="st1" d="M15,0.5H0v15.3c5-0.8,10.1-1.2,15-1.2V0.5z"/>
		<path class="st1" d="M0,25v20.7h15V30.8h15.5v14.9h15V19.8C23.8,18.5,8.8,21.9,0,25z"/>
	</g>
</g>
</svg>
